<svg width="296" height="239" viewBox="0 0 296 239" fill="none" xmlns="http://www.w3.org/2000/svg">
<path d="M13.2559 23.8366V223.601H282.748V23.8366H13.2559Z" fill="#1D0335" stroke="url(#paint0_angular_864_693)"/>
<path d="M292.092 76.1919V76.4403L291.894 76.5904L283.253 83.141V85.1387L284.376 86.982L295.5 78.5511V0.500374H204.624L194.86 11.3922L197.311 14.1286L205.851 4.58811L206 4.42159H206.223H291.592H292.092V4.92159V76.1919Z" fill="#505DD3" stroke="url(#paint1_angular_864_693)"/>
<path d="M4.10663 76.5904L3.9087 76.4403V76.1919V4.92159V4.42159H4.4087H89.7773H90.0008L90.1498 4.58813L98.6889 14.1286L101.14 11.3921L91.3752 0.500374H0.5V78.5511L11.6241 86.982L12.7469 85.1387V83.141L4.10663 76.5904Z" fill="#505DD3" stroke="url(#paint2_angular_864_693)"/>
<mask id="path-4-inside-1_864_693" fill="white">
<path d="M295.995 160.201V239.001H204.396L194.184 224.681L194.697 224.107H199.32L206.218 234.08H291.587V162.81L282.749 156.109V153.723L284.232 151.287L295.995 160.201Z"/>
</mask>
<path d="M295.995 160.201V239.001H204.396L194.184 224.681L194.697 224.107H199.32L206.218 234.08H291.587V162.81L282.749 156.109V153.723L284.232 151.287L295.995 160.201Z" fill="#505DD3"/>
<path d="M295.995 239.001H296.995V240.001H295.995V239.001ZM204.396 239.001V240.001H203.881L203.582 239.582L204.396 239.001ZM194.184 224.681L193.369 225.262L192.905 224.61L193.439 224.014L194.184 224.681ZM194.697 224.107L193.952 223.44L194.251 223.107H194.697V224.107ZM199.32 224.107V223.107H199.844L200.142 223.538L199.32 224.107ZM206.218 234.08V235.08H205.694L205.396 234.649L206.218 234.08ZM291.587 234.08H292.587V235.08H291.587V234.08ZM291.587 162.81L292.191 162.013L292.587 162.313V162.81H291.587ZM282.749 156.109L282.144 156.906L281.749 156.606V156.109H282.749ZM282.749 153.723H281.749V153.442L281.895 153.202L282.749 153.723ZM284.232 151.287L283.378 150.766L283.954 149.821L284.836 150.49L284.232 151.287ZM296.995 160.201V239.001H294.995V160.201H296.995ZM295.995 240.001H204.396V238.001H295.995V240.001ZM203.582 239.582L193.369 225.262L194.998 224.1L205.21 238.42L203.582 239.582ZM193.439 224.014L193.952 223.44L195.443 224.774L194.929 225.348L193.439 224.014ZM194.697 223.107H199.32V225.107H194.697V223.107ZM200.142 223.538L207.041 233.511L205.396 234.649L198.497 224.676L200.142 223.538ZM206.218 233.08H291.587V235.08H206.218V233.08ZM290.587 234.08V162.81H292.587V234.08H290.587ZM290.983 163.606L282.144 156.906L283.353 155.312L292.191 162.013L290.983 163.606ZM281.749 156.109V153.723H283.749V156.109H281.749ZM281.895 153.202L283.378 150.766L285.086 151.807L283.603 154.243L281.895 153.202ZM284.836 150.49L296.599 159.404L295.392 160.998L283.628 152.084L284.836 150.49Z" fill="url(#paint3_angular_864_693)" mask="url(#path-4-inside-1_864_693)"/>
<path d="M3.91073 162.81V162.561L4.10867 162.411L12.7498 155.861V153.863L11.6262 152.019L0.50293 160.449V238.501H91.3438L101.174 224.716L101.077 224.607H96.9407L90.1905 234.364L90.0413 234.58H89.7793H4.41073H3.91073V234.08V162.81Z" fill="#505DD3" stroke="url(#paint4_angular_864_693)"/>
<path d="M15.5264 221.511H15.0264V221.011V26.4379V25.9379H15.5264H280.472H280.972V26.4379V221.011V221.511H280.472H15.5264ZM10.4805 226.702H285.519V20.7462H10.4805V123.724V226.702Z" fill="#505DD3" stroke="url(#paint5_angular_864_693)"/>
<path d="M16.6642 219.185V212.509H8.84766V228.527H27.7886V219.685H17.1642H16.6642V219.185ZM278.839 219.685H268.216V228.527H287.157V212.509H279.339V219.185V219.685H278.839ZM17.1642 27.7603H27.7886V18.9189H8.84766V37.733H16.6642V28.2603V27.7603H17.1642ZM279.339 28.2603V37.733H287.157V18.9189H268.216V27.7603H278.839H279.339V28.2603Z" fill="#505DD3" stroke="url(#paint6_angular_864_693)"/>
<path d="M57.1116 11.0669L53.1192 16.8877H55.1726L59.165 11.0669H57.1116Z" fill="#505DD3" stroke="url(#paint7_angular_864_693)"/>
<path d="M51.4397 11.0669L47.4473 16.8877H49.4998L53.4922 11.0669H51.4397Z" fill="#505DD3" stroke="url(#paint8_angular_864_693)"/>
<path d="M45.764 11.0669L41.7715 16.8877H43.824L47.8165 11.0669H45.764Z" fill="#505DD3" stroke="url(#paint9_angular_864_693)"/>
<mask id="path-12-inside-2_864_693" fill="white">
<path d="M35.1494 17.3877H38.4155L43.0938 10.5669H39.8277L35.1494 17.3877Z"/>
</mask>
<path d="M35.1494 17.3877H38.4155L43.0938 10.5669H39.8277L35.1494 17.3877Z" fill="#505DD3"/>
<path d="M38.4155 17.3877L39.2401 17.9533L38.9422 18.3877H38.4155V17.3877ZM43.0938 10.5669V9.56686H44.9923L43.9184 11.1325L43.0938 10.5669ZM39.8277 10.5669L39.0031 10.0012L39.301 9.56686H39.8277V10.5669ZM35.1494 16.3877H38.4155V18.3877H35.1494V16.3877ZM37.5908 16.8221L42.2691 10.0012L43.9184 11.1325L39.2401 17.9533L37.5908 16.8221ZM43.0938 11.5669H39.8277V9.56686H43.0938V11.5669ZM40.6524 11.1325L35.9741 17.9533L34.3248 16.8221L39.0031 10.0012L40.6524 11.1325Z" fill="url(#paint10_angular_864_693)" mask="url(#path-12-inside-2_864_693)"/>
<path d="M51.7725 34.0576V37.7344H244.226V34.0576H51.7725Z" fill="#505DD3" stroke="url(#paint11_angular_864_693)"/>
<path d="M64.3684 11.067L52.2217 28.7764H243.777L231.63 11.067H147.999H64.3684Z" fill="#505DD3" stroke="url(#paint12_angular_864_693)"/>
<defs>
<radialGradient id="paint0_angular_864_693" cx="0" cy="0" r="1" gradientUnits="userSpaceOnUse" gradientTransform="translate(148.002 123.719) rotate(-90) scale(100.382 135.246)">
<stop stop-color="#E393FF"/>
<stop offset="1" stop-opacity="0"/>
</radialGradient>
<radialGradient id="paint1_angular_864_693" cx="0" cy="0" r="1" gradientUnits="userSpaceOnUse" gradientTransform="translate(245.094 43.8576) rotate(-90) scale(43.8572 50.9059)">
<stop stop-color="#E393FF"/>
<stop offset="1" stop-opacity="0"/>
</radialGradient>
<radialGradient id="paint2_angular_864_693" cx="0" cy="0" r="1" gradientUnits="userSpaceOnUse" gradientTransform="translate(50.9059 43.8576) rotate(-90) scale(43.8572 50.9059)">
<stop stop-color="#E393FF"/>
<stop offset="1" stop-opacity="0"/>
</radialGradient>
<radialGradient id="paint3_angular_864_693" cx="0" cy="0" r="1" gradientUnits="userSpaceOnUse" gradientTransform="translate(245.09 195.144) rotate(-90) scale(43.8571 50.9059)">
<stop stop-color="#E393FF"/>
<stop offset="1" stop-opacity="0"/>
</radialGradient>
<radialGradient id="paint4_angular_864_693" cx="0" cy="0" r="1" gradientUnits="userSpaceOnUse" gradientTransform="translate(50.9084 195.144) rotate(-90) scale(43.8571 50.9055)">
<stop stop-color="#E393FF"/>
<stop offset="1" stop-opacity="0"/>
</radialGradient>
<radialGradient id="paint5_angular_864_693" cx="0" cy="0" r="1" gradientUnits="userSpaceOnUse" gradientTransform="translate(148 123.724) rotate(-90) scale(103.478 138.019)">
<stop stop-color="#E393FF"/>
<stop offset="1" stop-opacity="0"/>
</radialGradient>
<radialGradient id="paint6_angular_864_693" cx="0" cy="0" r="1" gradientUnits="userSpaceOnUse" gradientTransform="translate(148.002 123.723) rotate(-90) scale(105.304 139.655)">
<stop stop-color="#E393FF"/>
<stop offset="1" stop-opacity="0"/>
</radialGradient>
<radialGradient id="paint7_angular_864_693" cx="0" cy="0" r="1" gradientUnits="userSpaceOnUse" gradientTransform="translate(56.1421 13.9773) rotate(-90) scale(3.41042 3.97218)">
<stop stop-color="#E393FF"/>
<stop offset="1" stop-opacity="0"/>
</radialGradient>
<radialGradient id="paint8_angular_864_693" cx="0" cy="0" r="1" gradientUnits="userSpaceOnUse" gradientTransform="translate(50.4698 13.9773) rotate(-90) scale(3.41042 3.97172)">
<stop stop-color="#E393FF"/>
<stop offset="1" stop-opacity="0"/>
</radialGradient>
<radialGradient id="paint9_angular_864_693" cx="0" cy="0" r="1" gradientUnits="userSpaceOnUse" gradientTransform="translate(44.794 13.9773) rotate(-90) scale(3.41042 3.97172)">
<stop stop-color="#E393FF"/>
<stop offset="1" stop-opacity="0"/>
</radialGradient>
<radialGradient id="paint10_angular_864_693" cx="0" cy="0" r="1" gradientUnits="userSpaceOnUse" gradientTransform="translate(39.1216 13.9773) rotate(-90) scale(3.41042 3.97217)">
<stop stop-color="#E393FF"/>
<stop offset="1" stop-opacity="0"/>
</radialGradient>
<radialGradient id="paint11_angular_864_693" cx="0" cy="0" r="1" gradientUnits="userSpaceOnUse" gradientTransform="translate(147.999 35.896) rotate(-90) scale(2.3384 96.7269)">
<stop stop-color="#E393FF"/>
<stop offset="1" stop-opacity="0"/>
</radialGradient>
<radialGradient id="paint12_angular_864_693" cx="0" cy="0" r="1" gradientUnits="userSpaceOnUse" gradientTransform="translate(147.999 19.9217) rotate(-90) scale(9.35466 96.7269)">
<stop stop-color="#E393FF"/>
<stop offset="1" stop-opacity="0"/>
</radialGradient>
</defs>
</svg>
